<svg id="icon" xmlns="http://www.w3.org/2000/svg" xmlns:xlink="http://www.w3.org/1999/xlink" viewBox="0 0 128 128"><defs><style>.cls-1{fill:none;}.cls-2{fill:#47acfc;}.cls-3{clip-path:url(#clip-path);}.cls-4{fill:#fff;}.cls-5{fill:#4aafff;}.cls-6{fill:#434e84;}.cls-7{fill:#282e5b;opacity:0.5;}</style><clipPath id="clip-path"><circle class="cls-1" cx="64" cy="64" r="60"/></clipPath></defs><title>icon_</title><circle class="cls-2" cx="64" cy="64" r="60"/><g class="cls-3"><polygon class="cls-4" points="7.72 94.01 6.75 92.98 31.9 69.25 57.36 74.77 81.67 47.04 102.88 48.23 119.4 25.45 120.54 26.28 103.57 49.69 82.28 48.49 57.87 76.33 32.33 70.79 7.72 94.01"/><path class="cls-4" d="M61.31,74.75a3.78,3.78,0,1,1-4.5-2.9A3.78,3.78,0,0,1,61.31,74.75Z"/><path class="cls-5" d="M58.56,79.93A4.49,4.49,0,1,1,62,74.6,4.49,4.49,0,0,1,58.56,79.93ZM57,72.55a3.07,3.07,0,1,0,3.65,2.35A3.08,3.08,0,0,0,57,72.55Z"/><path class="cls-4" d="M85.66,47.2a3.78,3.78,0,1,1-4.49-2.89A3.78,3.78,0,0,1,85.66,47.2Z"/><path class="cls-5" d="M82.92,52.39a4.49,4.49,0,1,1,3.44-5.34A4.5,4.5,0,0,1,82.92,52.39ZM81.32,45A3.07,3.07,0,1,0,85,47.35,3.08,3.08,0,0,0,81.32,45Z"/><path class="cls-4" d="M106.72,48a3.78,3.78,0,1,1-4.5-2.89A3.79,3.79,0,0,1,106.72,48Z"/><path class="cls-5" d="M104,53.23a4.49,4.49,0,1,1,3.44-5.33A4.49,4.49,0,0,1,104,53.23Zm-1.6-7.39A3.07,3.07,0,1,0,106,48.19,3.08,3.08,0,0,0,102.37,45.84Z"/><path class="cls-4" d="M35.79,69.57a3.78,3.78,0,1,1-4.5-2.89A3.78,3.78,0,0,1,35.79,69.57Z"/><path class="cls-5" d="M33,74.76a4.49,4.49,0,1,1,3.44-5.34A4.49,4.49,0,0,1,33,74.76Zm-1.6-7.39a3.07,3.07,0,1,0,3.65,2.35A3.09,3.09,0,0,0,31.44,67.37Z"/></g><path class="cls-6" d="M53.81,84.56a28.5,28.5,0,1,0-4.55-4.67L37.08,91.77l.05.06a3.38,3.38,0,0,0-4.78-.06l-22,21.41a3.38,3.38,0,0,0-.05,4.78l4.45,4.56a3.37,3.37,0,0,0,4.78.06l21.94-21.41a3.38,3.38,0,0,0,.06-4.78l.05.06ZM89.34,45.34a24.53,24.53,0,1,1-34.69-.43A24.56,24.56,0,0,1,89.34,45.34Z"/><path class="cls-7" d="M39.73,97.06l-1.66-1.7a3,3,0,0,1,0,4.31L18.24,119a3,3,0,0,1-4.31-.06l1.66,1.7a3,3,0,0,0,4.31.06l19.78-19.3A3,3,0,0,0,39.73,97.06Z"/></svg>